<svg xmlns="http://www.w3.org/2000/svg" height="24" viewBox="0 -960 960 960" width="24"><path d="M680.059-137.5q-42.559 0-72.559-30.088t-30-72.5q0-43.412 30.088-73.162 30.089-29.75 72.5-29.75 43.412 0 73.162 29.691Q783-283.618 783-240.059q0 42.559-29.691 72.559t-73.25 30Zm-12.559-260V-463H693v65.5h-25.5Zm0 380V-83H693v65.5h-25.5ZM801-343l-18-18 46-46.5 18.5 18.5-46.5 46ZM532-74l-18-17 46-47.5 18.5 18.5L532-74Zm305.5-153.5V-253H903v25.5h-65.5Zm-380 0V-253H523v25.5h-65.5ZM829-74l-46-46 18-18.5L847.5-92 829-74ZM560-343l-46-46 18-18.5 46.5 46.5-18.5 18ZM233.756-137q-24.194 0-40.725-16.531-16.531-16.531-16.531-40.733v-492.472q0-24.202 16.531-40.733Q209.562-744 234-744h82.5v-92H346v92h272v-92h25.5v92H726q24.438 0 40.969 16.531Q783.5-710.938 783.5-686.5V-527H202v332.5q0 12 10 22t22 10h159v25.5H233.756ZM202-552.5h556v-134q0-12-10-22t-22-10H234q-12 0-22 10t-10 22v134Zm0 0v-166 166Z"/></svg>